<svg width="256" height="256" viewBox="0 0 256 256" fill="none" xmlns="http://www.w3.org/2000/svg">
<rect width="256" height="256" fill="#9EF4E0"/>
<path d="M142.373 129.032C142.373 132.532 141.755 135.6 140.518 138.236C139.281 140.873 137.507 142.908 135.195 144.34C132.9 145.772 130.264 146.488 127.285 146.488C124.339 146.488 121.711 145.78 119.399 144.364C117.088 142.948 115.298 140.93 114.028 138.31C112.759 135.673 112.116 132.646 112.1 129.228V127.47C112.1 123.97 112.726 120.894 113.979 118.241C115.249 115.572 117.031 113.529 119.326 112.113C121.637 110.681 124.274 109.965 127.236 109.965C130.199 109.965 132.827 110.681 135.122 112.113C137.433 113.529 139.215 115.572 140.469 118.241C141.738 120.894 142.373 123.962 142.373 127.445V129.032ZM134.951 127.421C134.951 123.694 134.284 120.862 132.949 118.925C131.615 116.988 129.71 116.02 127.236 116.02C124.779 116.02 122.882 116.98 121.548 118.9C120.213 120.805 119.538 123.604 119.521 127.299V129.032C119.521 132.662 120.189 135.478 121.523 137.479C122.858 139.481 124.779 140.482 127.285 140.482C129.743 140.482 131.631 139.522 132.949 137.602C134.268 135.665 134.935 132.849 134.951 129.154V127.421Z" fill="black"/>
</svg>
