<svg width="256" height="256" viewBox="0 0 256 256" fill="none" xmlns="http://www.w3.org/2000/svg">
<rect width="256" height="256" fill="#F29191"/>
<path d="M120.498 133.476V146H113.174V110.453H127.041C129.71 110.453 132.054 110.941 134.072 111.918C136.107 112.895 137.669 114.286 138.76 116.093C139.85 117.883 140.396 119.926 140.396 122.221C140.396 125.704 139.199 128.454 136.807 130.473C134.43 132.475 131.134 133.476 126.919 133.476H120.498ZM120.498 127.543H127.041C128.978 127.543 130.451 127.087 131.46 126.176C132.485 125.264 132.998 123.962 132.998 122.27C132.998 120.528 132.485 119.12 131.46 118.046C130.435 116.972 129.019 116.418 127.212 116.386H120.498V127.543Z" fill="black"/>
</svg>
